
<svg xmlns="http://www.w3.org/2000/svg" xml:space="preserve" width="150" height="45" version="1.1" style="shape-rendering:geometricPrecision; text-rendering:geometricPrecision; image-rendering:optimizeQuality; fill-rule:evenodd; clip-rule:evenodd"
     viewBox="0 0 13996.71 3912">
 <g id="Слой_x0020_1">
  <metadata id="CorelCorpID_0Corel-Layer"/>
  <path class="fil0" d="M3859.65 656.21c0,201.91 -156.54,384.9 -469.65,548.95 -232.83,126.19 -475.68,210.32 -728.58,252.39 289.02,71.5 533.89,170.35 734.6,296.55 280.99,180.88 421.48,393.3 421.48,637.27 0,197.71 -98.34,414.34 -295.04,649.89 116.41,147.23 174.62,254.5 174.62,321.8 0,58.89 -22.07,88.33 -66.23,88.33 -20.07,0 -36.12,-10.51 -48.17,-31.54 -60.21,-113.58 -116.41,-199.81 -168.59,-258.7 -260.92,252.39 -602.13,445.89 -1023.61,580.49 -369.31,113.57 -754.67,170.35 -1156.1,170.35 -268.95,0 -523.85,-54.68 -764.7,-164.04 -313.1,-138.82 -469.66,-330.21 -469.66,-574.18 0,-281.83 128.46,-513.18 385.37,-694.07 216.76,-151.43 467.66,-235.55 752.65,-252.39 172.62,-416.43 359.28,-820.25 559.99,-1211.46 64.22,-130.4 168.59,-315.49 313.1,-555.25 64.24,-92.54 166.59,-138.81 307.09,-138.81 56.2,0 84.3,16.82 84.3,50.48 0,12.62 -4.01,25.23 -12.03,37.86 -377.34,534.22 -726.58,1139.95 -1047.72,1817.19 903.2,21.03 1575.58,233.46 2017.15,637.28 128.44,-176.68 192.68,-342.83 192.68,-498.46 0,-265.01 -170.6,-473.23 -511.81,-624.66 -264.94,-113.58 -545.93,-170.36 -842.98,-170.36 -12.04,0 -34.12,0 -66.23,0 -32.12,0 -56.19,0 -72.26,0 -52.18,0 -78.27,-18.92 -78.27,-56.79 0,-75.71 58.21,-124.09 174.61,-145.12 64.24,-8.41 160.58,-23.13 289.03,-44.17 485.72,-105.16 840.98,-267.11 1065.77,-485.84 92.32,-92.54 138.49,-172.47 138.49,-239.78 0,-151.43 -186.66,-265 -559.99,-340.72 -252.89,-50.48 -513.81,-75.71 -782.76,-75.71 -722.56,0 -1396.94,136.71 -2023.16,410.13 -20.07,8.41 -36.12,12.61 -48.16,12.61 -32.12,0 -48.17,-16.82 -48.17,-50.48 0,-50.48 27.09,-106.21 81.28,-167.2 54.2,-61 105.37,-102.01 153.54,-123.04 417.48,-176.68 949.36,-265.01 1595.65,-265.01 385.36,0 742.62,37.86 1071.79,113.58 513.82,113.58 770.73,294.45 770.73,542.63zm-608.15 2347.2c-224.8,-197.7 -507.8,-353.34 -849.01,-466.92 -325.15,-105.16 -644.27,-157.74 -957.38,-157.74 -60.22,0 -118.42,2.11 -174.62,6.31 -240.85,538.43 -361.28,898.08 -361.28,1078.96 0,12.62 2.01,29.44 6.02,50.48 4.02,21.03 6.02,37.86 6.02,50.48 0,54.69 -22.08,82.03 -66.24,82.03 -64.22,0 -96.33,-56.79 -96.33,-170.36 0,-189.29 102.36,-544.74 307.09,-1066.34 -533.89,92.54 -800.84,351.24 -800.84,776.09 0,193.49 122.44,344.92 367.31,454.3 192.68,88.33 393.39,132.5 602.12,132.5 891.16,0 1563.54,-256.6 2017.14,-769.78zm2643.36 -189.29c0,21.03 -12.04,50.48 -36.13,88.33 -176.61,298.66 -343.21,490.05 -499.75,574.18 -72.27,37.86 -144.52,56.79 -216.78,56.79 -244.87,0 -367.3,-180.88 -367.3,-542.64 0,-58.89 4.01,-121.99 12.04,-189.29 -268.95,500.57 -507.8,750.85 -716.54,750.85 -124.44,0 -186.65,-71.51 -186.65,-214.52 0,-218.74 100.36,-482.7 301.06,-791.87 200.71,-309.18 395.4,-497.41 584.07,-564.72 68.24,-29.44 134.47,-44.17 198.7,-44.17 144.52,0 248.88,52.58 313.1,157.74 12.05,21.03 18.07,35.76 18.07,44.17 0,4.21 -14.05,10.52 -42.15,18.93 -28.1,8.41 -48.17,23.13 -60.21,44.17 -96.34,164.05 -144.52,410.13 -144.52,738.23 0,302.86 62.22,454.3 186.65,454.3 88.32,0 213.76,-102 376.33,-306.02 162.58,-204.01 249.89,-306.01 261.94,-306.01 12.04,0 18.06,10.51 18.06,31.54zm-885.13 -662.52c-16.06,-4.21 -34.12,-6.31 -54.2,-6.31 -160.56,0 -327.16,107.27 -499.76,321.8 -244.87,311.28 -367.3,565.76 -367.3,763.47 0,88.33 28.09,132.5 84.3,132.5 88.31,0 202.72,-96.74 343.21,-290.24 196.7,-260.8 361.28,-567.87 493.75,-921.21zm2673.45 618.35c0,29.44 -12.03,65.2 -36.12,107.27 -112.39,193.5 -242.85,361.75 -391.38,504.77 -192.68,185.08 -373.32,277.62 -541.92,277.62 -224.79,0 -337.19,-147.22 -337.19,-441.67 0,-67.3 30.11,-199.81 90.32,-397.51 -140.5,214.53 -230.82,347.03 -270.96,397.51 -132.47,164.05 -250.88,246.08 -355.26,246.08 -132.47,0 -198.69,-117.78 -198.69,-353.34 0,-134.61 42.15,-296.55 126.43,-485.84 92.33,-218.74 192.69,-328.11 301.07,-328.11 60.21,0 90.32,16.82 90.32,50.48 0,4.21 -51.18,99.9 -153.54,287.09 -102.37,187.19 -153.55,331.26 -153.55,432.22 0,134.61 38.14,201.91 114.42,201.91 128.45,0 359.26,-307.07 692.45,-921.21 28.09,-58.89 70.24,-140.91 126.43,-246.08 28.1,-33.65 58.2,-50.48 90.32,-50.48 36.12,0 69.25,15.78 99.36,47.32 30.1,31.54 45.16,68.35 45.16,110.42 0,-4.21 -71.25,136.71 -213.75,422.74 -142.51,286.04 -213.76,506.88 -213.76,662.52 0,147.23 66.24,220.84 198.7,220.84 112.4,0 240.85,-67.3 385.37,-201.91 96.33,-88.33 204.73,-214.53 325.15,-378.58 100.36,-134.61 154.55,-201.91 162.58,-201.91 12.04,0 18.05,12.61 18.05,37.86zm-186.65 -1514.32c-8.03,4.2 -16.05,14.72 -24.08,31.54 -272.97,315.49 -539.92,452.2 -800.85,410.13 -220.78,-37.86 -335.18,-168.26 -343.21,-391.2 4.02,-42.07 10.04,-77.82 18.06,-107.27 12.05,-42.07 28.1,-61 48.17,-56.79 20.07,4.2 36.12,39.96 48.17,107.27 20.07,79.92 46.16,140.91 78.27,182.98 48.17,71.51 124.45,115.68 228.81,132.5 204.72,37.87 421.49,-60.99 650.29,-296.55 28.1,-33.64 52.19,-48.37 72.27,-44.17 16.04,4.21 24.08,14.72 24.08,31.55zm1384.91 1192.52c-132.47,180.88 -258.92,351.24 -379.34,511.08 -120.43,159.84 -220.78,281.83 -301.06,365.96 -112.4,113.58 -218.78,187.19 -319.14,220.84 -100.34,33.64 -184.64,32.6 -252.88,-3.16 -68.24,-35.76 -117.42,-105.17 -147.53,-208.22 -30.11,-103.07 -31.1,-236.62 -3.01,-400.66 12.05,-79.93 34.13,-134.61 66.23,-164.05 32.12,-29.44 66.23,-44.17 102.36,-44.17 36.13,0 68.24,11.57 96.34,34.7 28.1,23.13 46.16,49.42 54.2,78.87 -64.23,172.47 -95.34,311.29 -93.33,416.44 2,105.17 30.11,168.26 84.3,189.29 54.19,21.03 129.47,-3.15 225.8,-72.56 96.34,-69.41 204.73,-192.44 325.15,-369.12 24.1,-33.65 69.25,-97.8 135.48,-192.44 66.23,-94.64 157.56,-209.28 273.97,-343.88 40.13,-50.48 78.27,-96.75 114.4,-138.82 36.13,-42.06 94.34,-109.37 174.63,-201.91 28.1,-29.44 60.21,-44.17 96.34,-44.17 92.32,0 138.48,48.38 138.48,145.12 0,21.03 -8.02,46.28 -24.09,75.72 -224.79,387 -337.2,694.06 -337.2,921.21 0,159.84 72.26,239.76 216.78,239.76 112.39,0 232.82,-60.99 361.27,-182.98 88.31,-79.92 182.65,-193.5 283.01,-340.73 84.3,-121.99 132.47,-182.98 144.51,-182.98 12.04,0 18.06,12.62 18.06,37.86 0,29.44 -12.05,65.2 -36.12,107.27 -272.97,475.33 -555.97,712.99 -849.01,712.99 -228.81,0 -343.22,-151.43 -343.22,-454.3 0,-265.01 58.21,-502.67 174.63,-712.99zm2366.37 391.2c0,8.42 -4.02,21.03 -12.04,37.87 -100.36,164.04 -250.89,315.48 -451.6,454.3 -212.75,147.22 -407.44,220.83 -584.07,220.83 -252.89,0 -379.33,-166.15 -379.33,-498.46 0,-218.73 90.31,-458.5 270.95,-719.31 192.68,-277.62 391.38,-416.44 596.11,-416.44 40.15,0 75.27,18.93 105.38,56.79 30.1,37.87 45.16,77.82 45.16,119.89 0,130.4 -94.34,288.14 -283,473.23 -168.6,164.05 -323.15,273.42 -463.65,328.1 -28.1,105.17 -42.15,193.5 -42.15,265.01 0,172.47 74.27,258.7 222.79,258.7 140.5,0 299.06,-60.99 475.69,-182.98 152.54,-105.17 283,-225.05 391.38,-359.65 28.1,-42.07 56.2,-63.1 84.3,-63.1 16.05,0 24.09,8.41 24.09,25.23zm-590.08 -668.82c0,-50.48 -24.09,-75.72 -72.26,-75.72 -60.22,0 -148.53,96.74 -264.95,290.24 -100.34,164.05 -162.57,292.35 -186.65,384.9 104.38,-46.28 212.75,-128.3 325.16,-246.08 132.47,-134.61 198.7,-252.39 198.7,-353.34zm2914.31 656.21c0,16.82 -4.02,29.44 -12.04,37.86 -100.36,147.22 -212.76,283.93 -337.2,410.13 -172.61,168.25 -317.13,252.39 -433.53,252.39 -188.67,0 -283,-218.73 -283,-656.21 0,-67.31 2,-143.02 6.01,-227.15 -144.52,134.61 -307.09,376.49 -487.73,725.62 -60.21,117.78 -126.44,176.68 -198.7,176.68 -24.09,0 -42.15,-8.42 -54.19,-25.24 -12.05,-46.27 -18.07,-105.17 -18.07,-176.68 0,-121.98 26.09,-344.92 78.28,-668.82 28.1,-164.05 42.15,-269.22 42.15,-315.49 0,-33.65 -6.02,-50.48 -18.06,-50.48 -68.24,63.1 -178.63,199.81 -331.17,410.13 -164.59,227.14 -341.21,494.25 -529.87,801.33 -24.1,37.86 -44.17,56.79 -60.22,56.79 -32.12,0 -48.17,-37.86 -48.17,-113.58 0,-21.03 2.01,-37.86 6.02,-50.48 92.33,-227.14 186.66,-546.84 283,-959.07 8.03,-58.89 24.1,-143.02 48.17,-252.39 8.03,-29.44 35.13,-58.89 81.28,-88.33 46.16,-29.44 85.3,-44.17 117.42,-44.17 28.1,0 42.15,12.61 42.15,37.86 0,42.07 -94.34,361.75 -283,959.07 144.52,-201.91 293.04,-410.13 445.58,-624.66 48.17,-67.3 120.42,-168.25 216.76,-302.86 60.21,-75.71 122.44,-113.58 186.65,-113.58 64.24,0 96.34,37.87 96.34,113.58 0,54.69 -14.05,163 -42.15,324.95 -28.1,161.94 -60.21,398.56 -96.34,709.84 112.41,-168.26 287.03,-414.34 523.86,-738.24 64.23,-79.92 128.45,-119.88 192.69,-119.88 60.2,0 90.31,39.96 90.31,119.88 0,67.31 -10.04,167.21 -30.11,299.71 -20.07,132.51 -30.1,232.41 -30.1,299.72 0,218.73 54.2,328.1 162.58,328.1 152.54,0 347.23,-176.67 584.07,-530.01 24.08,-42.07 44.15,-63.1 60.2,-63.1 20.07,0 30.11,18.92 30.11,56.79zm-608.16 -1173.6c-505.78,-126.2 -877.09,-119.89 -1113.93,18.92 -44.16,25.24 -80.29,65.2 -108.39,119.89 -12.03,29.44 -18.05,69.41 -18.05,119.89 0,50.48 -6.02,88.33 -18.07,113.57l-24.08 18.93c-40.14,29.44 -57.21,-1.06 -51.18,-91.49 6.02,-90.44 25.09,-167.21 57.21,-230.31 40.13,-96.74 108.37,-170.35 204.72,-220.83 176.62,-109.38 409.45,-151.43 698.48,-126.2 72.25,0 315.11,35.76 728.58,107.27 252.89,46.27 419.48,46.27 499.76,0 48.17,-29.44 82.3,-67.3 102.37,-113.58 24.08,-54.68 29.1,-105.16 15.04,-151.43 -14.05,-46.27 -13.04,-86.23 3.01,-119.88 8.03,-4.21 12.05,-6.31 12.05,-6.31 32.12,-21.03 47.17,21.03 45.16,126.19 -2.01,105.17 -15.06,182.99 -39.14,233.46 -60.22,121.99 -124.44,206.11 -192.68,252.39 -100.36,58.89 -258.92,69.4 -475.69,31.54 -24.09,-12.62 -72.26,-23.13 -144.52,-31.54 -32.11,0 -92.33,-16.83 -180.64,-50.48z"/>
  <path class="fil1" d="M4194.84 963.89l0 -29.56c17.65,-1.92 32.08,-7.33 43.49,-16.22 11.41,-8.89 20.9,-22.22 28.71,-40.13l173.61 -409.33 36.04 0 162.08 407.9c8.17,20.66 17.66,35.08 28.35,43.37 10.7,8.17 25.59,12.98 44.58,14.41l0 29.56c-19.7,-0.72 -40.01,-1.32 -60.91,-1.68 -20.91,-0.36 -42.18,-0.48 -63.81,-0.48 -21.99,0 -43.37,0.12 -64.03,0.48 -20.66,0.36 -40.61,0.96 -59.95,1.68l0 -29.56c26.07,-1.2 43.01,-3.72 50.94,-7.68 7.82,-4.09 11.78,-11.05 11.78,-21.15 0,-5.41 -1.32,-12.98 -3.96,-22.71 -2.53,-9.73 -6.01,-20.42 -10.57,-31.95l-14.41 -38.33 -161.36 0 -12.38 28.11c-4.45,10.34 -7.93,20.43 -10.57,30.27 -2.52,9.98 -3.84,17.91 -3.84,24.03 0,13.57 4.8,23.54 14.41,29.92 9.61,6.36 24.52,9.49 44.7,9.49l0 29.56c-14.54,-0.72 -29.2,-1.32 -43.97,-1.68 -14.78,-0.36 -29.68,-0.48 -44.7,-0.48 -13.93,0 -27.87,0.12 -41.93,0.48 -14.06,0.36 -28.23,0.96 -42.28,1.68zm155.7 -186.71l132.52 0 -63.2 -167.83 -69.32 167.83zm1336.18 98.4l0 -356.82c-3.72,-0.48 -7.68,-0.85 -11.77,-0.96 -4.09,-0.12 -10.09,-0.12 -17.79,-0.12 -40.37,0 -69.56,7.33 -87.46,21.99 -18.02,14.66 -29.92,40.49 -35.8,77.49l-28.84 0 6 -139.13c24.39,1.2 51.54,2.04 81.58,2.64 30.04,0.6 65.48,0.96 106.32,0.96 58.04,0 109.57,-0.25 154.75,-0.72 45.17,-0.48 86.62,-1.21 124.34,-2.17l6.37 138.41 -28.11 0c-6.37,-36.52 -18.39,-62.35 -36.29,-77.49 -17.9,-15.14 -45.65,-22.7 -83.5,-22.7 -3.48,0 -7.69,0.11 -12.61,0.36 -4.93,0.24 -12.5,0.72 -22.59,1.44l0 356.82c0,22.83 5.04,38.08 15.13,46.13 10.1,7.93 29.8,12.38 59.11,13.34l0 29.55c-18.74,-0.95 -38.08,-1.68 -58.15,-2.16 -19.94,-0.48 -40.85,-0.72 -62.96,-0.72 -22.83,0 -45.65,0.24 -68.72,0.72 -22.94,0.48 -46.25,1.21 -69.68,2.16l0 -29.92c28.95,-1.43 47.94,-5.88 57.06,-13.57 9.02,-7.57 13.57,-22.7 13.57,-45.53zm1117.65 89.75l0 -30.27c27.03,0 45.05,-5.53 54.19,-16.7 9.01,-11.18 13.57,-37.01 13.57,-77.62l0 -266.84c0,-26.43 -4.69,-44.57 -13.94,-54.78 -9.25,-10.09 -25.58,-15.14 -48.9,-15.14l-4.92 0 0 -28.11c27.51,1.44 53.46,2.52 77.96,3.25 24.52,0.72 47.82,1.08 69.93,1.08 36.64,0 76.05,-0.36 118.09,-1.08 42.17,-0.73 86.15,-1.8 131.92,-3.25l0 126.15 -29.55 0c-7.93,-34.96 -21.27,-58.62 -40.01,-70.89 -18.63,-12.37 -54.43,-18.5 -107.3,-18.5 -18.74,0 -30.15,1.21 -34.12,3.73 -3.96,2.41 -6,8.65 -6,18.74l0 158.47 12.25 0c27.99,0 48.3,-5.77 61.03,-17.29 12.86,-11.54 21.99,-32.68 27.27,-63.44l31.36 0c-0.96,10.33 -1.8,23.67 -2.52,39.88 -0.73,16.34 -1.09,34.48 -1.09,54.42 0,16.23 0.36,32.57 0.96,49.15 0.59,16.45 1.44,33.52 2.64,51.18l-29.56 0c-5.16,-30.16 -14.54,-51.18 -27.99,-62.96 -13.46,-11.89 -35.2,-17.79 -65.24,-17.79l-9.13 0 0 129.16c0,24.99 6.36,43.01 18.97,54.06 12.73,10.93 33.77,16.45 63.08,16.45 44.22,0 76.29,-8.04 96.23,-24.02 19.95,-16.11 33.52,-44.09 40.86,-84.1l26.67 0 0 146.33c-54.42,-1.43 -103.68,-2.52 -147.66,-3.11 -44.08,-0.73 -82.77,-1.09 -116.06,-1.09 -39.65,0 -71.85,0.36 -96.71,1.2 -24.75,0.84 -46.86,2.05 -66.32,3.73zm1384.97 -91.55c-13.82,35.56 -28.72,61.03 -44.81,76.41 -16.11,15.38 -35.57,23.07 -58.51,23.07 -20.19,0 -36.89,-5.16 -50.22,-15.5 -13.22,-10.34 -19.82,-22.95 -19.82,-37.97 0,-9.36 3.12,-17.06 9.36,-23.18 6.13,-6.13 14.06,-9.13 23.68,-9.13 6.84,0 12.73,1.68 17.65,4.93 4.93,3.24 9.37,8.52 13.34,15.85 0.96,1.69 1.93,3.49 3.12,5.66 8.05,14.54 15.38,21.86 22.23,21.86 9.13,0 18.62,-7.33 28.47,-21.99 9.85,-14.66 20.54,-37.49 31.95,-68.24l110.89 -296.15c-1.43,-15.25 -6.72,-26.43 -15.86,-33.64 -9.13,-7.09 -22.7,-10.81 -40.85,-11.05l0 -26.67c10.57,0.72 21.63,1.2 33.16,1.57 11.41,0.36 23.43,0.59 35.8,0.59 17.43,0 30.77,-0.12 40.25,-0.24 9.61,-0.12 18.63,-0.25 27.27,-0.48l157.99 401.64c7.45,18.75 16.46,31.84 27.04,39.29 10.57,7.33 25.7,11.29 45.41,11.77l0 29.56c-21.62,-0.72 -41.56,-1.2 -59.94,-1.56 -18.39,-0.37 -34.97,-0.6 -49.74,-0.6 -10.82,0 -25.59,0.24 -44.22,0.72 -18.63,0.48 -50.58,1.44 -95.87,2.89l0 -30.27 5.29 0c20.66,0 35.32,-2.53 43.85,-7.57 8.53,-5.05 12.86,-13.34 12.86,-24.87 0,-3 -0.96,-8.04 -2.88,-15.13 -1.8,-6.98 -4.45,-15.02 -7.69,-23.91l-95.39 -250.74 -103.8 263.11zm1384.84 -149.94l0 120.98c0,30.76 4.2,52.14 12.5,64.15 8.29,12.13 22.94,18.14 43.85,18.14 27.03,0 47.22,-8.53 60.55,-25.47 13.34,-17.07 20.07,-42.66 20.07,-76.9 0,-35.2 -9.14,-60.91 -27.27,-77.25 -18.27,-16.22 -46.86,-24.39 -86.15,-24.39 -6,0 -10.69,0 -14.06,0.12 -3.24,0.12 -6.49,0.36 -9.49,0.6zm0 -32.45c6.84,-0.24 15.25,-0.59 25.23,-0.96 9.97,-0.36 16.22,-0.47 18.86,-0.47 76.28,0 132.27,11.04 167.83,33.28 35.57,22.22 53.35,56.95 53.35,104.41 0,45.53 -17.78,79.66 -53.22,102.24 -35.44,22.71 -89.03,34 -160.87,34 -13.82,0 -35.68,-0.48 -65.36,-1.44 -29.67,-0.95 -52.38,-1.43 -68.12,-1.43 -18.75,0 -49.14,0.95 -91.19,2.88l-4.57 0 0 -30.27c26.07,-0.72 43.74,-5.53 52.75,-14.41 9.01,-8.89 13.57,-26.2 13.57,-51.9l0 -298.92c0,-24.63 -4.45,-40.97 -13.46,-49.26 -8.88,-8.18 -26.54,-12.5 -52.86,-12.98l0 -29.56c13.1,1.21 28,2.05 44.34,2.64 16.45,0.6 36.52,0.96 60.31,0.96 24.63,0 48.9,-0.24 72.69,-0.59 23.78,-0.37 46.85,-0.85 69.2,-1.57l0 29.92 -9.13 0c-21.27,0 -36.4,4.93 -45.54,14.66 -9.24,9.85 -13.81,26.31 -13.81,49.26l0 119.54zm1108.28 273.93l0 -30.27c27.03,0 45.05,-5.53 54.19,-16.7 9.01,-11.18 13.57,-37.01 13.57,-77.62l0 -266.84c0,-26.43 -4.69,-44.57 -13.94,-54.78 -9.25,-10.09 -25.58,-15.14 -48.9,-15.14l-4.92 0 0 -28.11c27.51,1.44 53.46,2.52 77.96,3.25 24.52,0.72 47.82,1.08 69.93,1.08 36.64,0 76.05,-0.36 118.09,-1.08 42.17,-0.73 86.15,-1.8 131.92,-3.25l0 126.15 -29.55 0c-7.93,-34.96 -21.27,-58.62 -40.01,-70.89 -18.63,-12.37 -54.43,-18.5 -107.3,-18.5 -18.74,0 -30.15,1.21 -34.12,3.73 -3.96,2.41 -6,8.65 -6,18.74l0 158.47 12.25 0c27.99,0 48.3,-5.77 61.03,-17.29 12.86,-11.54 21.99,-32.68 27.27,-63.44l31.36 0c-0.96,10.33 -1.8,23.67 -2.52,39.88 -0.73,16.34 -1.09,34.48 -1.09,54.42 0,16.23 0.36,32.57 0.96,49.15 0.59,16.45 1.44,33.52 2.64,51.18l-29.56 0c-5.16,-30.16 -14.54,-51.18 -27.99,-62.96 -13.46,-11.89 -35.2,-17.79 -65.24,-17.79l-9.13 0 0 129.16c0,24.99 6.36,43.01 18.97,54.06 12.73,10.93 33.77,16.45 63.08,16.45 44.22,0 76.29,-8.04 96.23,-24.02 19.95,-16.11 33.52,-44.09 40.86,-84.1l26.67 0 0 146.33c-54.42,-1.43 -103.68,-2.52 -147.66,-3.11 -44.08,-0.73 -82.77,-1.09 -116.06,-1.09 -39.65,0 -71.85,0.36 -96.71,1.2 -24.75,0.84 -46.86,2.05 -66.32,3.73z"/>
 </g>
</svg>
